<svg xmlns="http://www.w3.org/2000/svg" viewBox="0 0 400 300"><rect width="400" height="300" rx="28" fill="#f7fbff"/><ellipse cx="200" cy="238" rx="122" ry="18" fill="#d9eaf7"/><path d="M120 94c0-30 24-54 54-54h52c30 0 54 24 54 54v126H120z" fill="#0066b3"/><path d="M150 112h100v108H150z" fill="#00a6e8"/><path d="M156 48c12-18 76-18 88 0" fill="none" stroke="#002b5c" stroke-width="14" stroke-linecap="round"/><path d="M120 132H94v74c0 16 12 28 28 28h24v-82c0-12-10-20-26-20z" fill="#ffcf4a"/><path d="M280 132h26v74c0 16-12 28-28 28h-24v-82c0-12 10-20 26-20z" fill="#ffcf4a"/><rect x="172" y="136" width="56" height="42" rx="12" fill="#fff"/><rect x="260" y="176" width="56" height="54" rx="12" fill="#002b5c"/><path d="M276 190h24M276 205h24" stroke="#fff" stroke-width="7" stroke-linecap="round"/></svg>
