<svg xmlns="http://www.w3.org/2000/svg" width="1024" height="1024" viewBox="0 0 1024 1024">
  <g>
    <path d="M 405.13 884.59 C403.27,885.37 401.70,885.97 401.63,885.93 C401.56,885.89 400.68,885.54 399.68,885.14 C398.67,884.75 397.89,884.10 397.93,883.71 C398.18,881.23 397.61,880.92 393.21,881.12 C389.62,881.28 385.53,880.25 376.96,877.03 C312.94,852.94 252.81,810.05 210.02,757.95 L 205.54 752.50 L 210.25 756.75 C217.67,763.45 218.08,762.89 214.42,751.00 C213.48,747.97 212.52,743.47 212.27,741.00 C211.98,738.13 211.11,735.94 209.87,734.97 C207.95,733.46 205.71,726.39 204.01,716.50 C202.84,709.73 200.17,701.22 198.97,700.48 C198.44,700.15 198.00,699.00 198.00,697.93 C198.00,696.85 197.57,695.19 197.04,694.24 C196.51,693.28 194.98,688.67 193.63,684.00 C187.00,661.02 184.53,653.19 182.84,649.79 C181.83,647.75 181.00,645.00 181.00,643.69 C181.00,642.37 180.59,639.99 180.10,638.40 C179.60,636.80 178.66,631.45 178.00,626.50 C177.34,621.55 176.20,615.60 175.47,613.28 C174.02,608.69 172.87,601.34 170.56,582.00 C168.96,568.69 169.12,547.26 170.92,532.00 C171.47,527.33 172.45,515.40 173.09,505.50 C173.79,494.63 174.99,484.73 176.13,480.52 C177.16,476.68 178.00,471.93 178.00,469.97 C178.00,468.01 178.40,465.97 178.89,465.45 C179.39,464.93 180.08,462.04 180.43,459.04 C180.78,456.03 181.94,452.21 183.02,450.54 C186.53,445.07 188.92,439.08 189.59,434.06 C189.98,431.10 190.83,428.89 191.72,428.55 C192.62,428.21 192.96,427.33 192.57,426.32 C192.19,425.34 193.79,420.77 196.50,415.08 C200.74,406.19 201.98,403.50 205.53,395.50 C208.54,388.71 211.11,383.36 212.50,381.00 C214.92,376.89 220.00,365.18 220.00,363.72 C220.00,361.47 226.09,354.26 229.59,352.38 C231.52,351.34 233.58,349.04 234.59,346.80 C235.53,344.71 238.38,340.83 240.91,338.19 C245.93,332.95 249.00,328.70 249.00,326.96 C249.00,325.90 254.47,318.99 260.25,312.76 C261.76,311.12 263.00,309.05 263.01,308.14 C263.01,307.24 265.47,304.02 268.47,301.00 C271.47,297.98 273.94,294.90 273.96,294.17 C274.02,292.31 279.52,287.00 281.40,287.00 C282.25,287.00 283.71,285.85 284.63,284.44 C285.55,283.03 288.91,279.88 292.09,277.43 C295.27,274.99 299.32,270.74 301.10,267.99 C302.88,265.25 304.71,263.00 305.17,263.00 C305.63,263.00 306.00,262.52 306.00,261.93 C306.00,260.91 310.12,254.96 312.75,252.18 C313.44,251.45 314.00,250.45 314.00,249.96 C314.00,249.46 316.22,248.10 318.93,246.94 C322.14,245.55 324.78,243.48 326.51,240.99 C327.97,238.88 330.86,235.99 332.93,234.55 C335.00,233.11 338.45,229.47 340.60,226.45 C342.74,223.43 346.71,219.51 349.40,217.73 C352.10,215.95 355.47,213.71 356.90,212.76 C358.33,211.80 360.26,211.01 361.18,211.01 C362.11,211.00 364.50,209.00 366.51,206.56 C370.56,201.61 377.48,196.87 383.42,194.98 C385.59,194.29 389.22,191.80 391.58,189.37 C393.91,186.97 396.29,185.00 396.85,185.00 C398.24,185.00 405.00,180.97 405.00,180.15 C405.00,179.78 406.46,178.91 408.25,178.21 C412.85,176.40 424.22,170.77 426.00,169.41 C426.83,168.78 428.85,167.96 430.50,167.58 C432.15,167.20 438.90,164.24 445.50,161.00 C460.54,153.60 473.78,148.00 476.22,148.00 C477.25,148.00 479.96,147.10 482.24,146.00 C484.51,144.90 487.30,144.00 488.44,143.99 C489.57,143.99 491.72,143.35 493.21,142.58 C496.74,140.73 510.04,138.00 515.48,138.00 C517.83,138.00 521.60,137.35 523.85,136.55 C526.11,135.75 533.26,134.85 539.73,134.53 C551.66,133.96 555.71,133.36 566.50,130.58 C571.93,129.19 585.94,128.65 607.67,129.00 C610.51,129.05 613.12,128.61 613.47,128.04 C613.83,127.47 617.53,127.00 621.74,127.00 C625.93,127.00 630.81,126.47 632.59,125.83 C635.29,124.85 636.25,124.94 638.38,126.33 C642.61,129.10 645.69,128.38 645.12,124.75 C644.89,123.29 647.36,124.07 660.35,129.56 C763.53,173.19 843.17,261.02 880.03,371.82 C888.79,398.16 892.87,415.20 896.94,442.50 C898.65,453.95 898.66,467.68 896.95,464.92 C896.52,464.23 896.24,466.76 896.33,470.56 C896.49,477.17 896.40,477.47 894.17,477.48 C891.60,477.50 889.00,480.37 889.00,483.19 C889.00,484.19 888.55,485.00 888.00,485.00 C887.45,485.00 887.00,486.28 887.00,487.84 C887.00,489.40 886.33,492.89 885.51,495.59 C884.69,498.29 884.02,501.98 884.01,503.79 C884.00,505.59 883.38,508.07 882.61,509.29 C881.85,510.50 880.94,513.14 880.59,515.15 C880.23,517.16 879.06,519.93 877.97,521.31 C876.52,523.16 875.72,526.53 874.95,534.16 C874.37,539.85 873.43,545.85 872.87,547.50 C872.31,549.15 871.00,553.37 869.96,556.87 C868.92,560.37 867.30,564.41 866.36,565.85 C865.42,567.29 863.38,573.35 861.83,579.32 C860.28,585.29 857.83,592.95 856.40,596.34 C853.01,604.34 851.27,609.63 850.54,614.15 C850.21,616.16 848.84,619.43 847.49,621.43 C846.13,623.42 844.73,626.28 844.37,627.78 C844.00,629.27 842.93,631.62 841.99,633.00 C841.04,634.38 839.95,636.51 839.56,637.75 C838.40,641.49 829.93,658.21 826.87,662.80 C825.29,665.17 824.00,667.63 824.00,668.27 C824.00,669.63 814.50,685.56 811.94,688.50 C810.98,689.60 809.48,692.08 808.61,694.00 C806.51,698.66 793.82,716.58 789.46,721.04 C787.56,722.99 786.00,725.10 786.00,725.72 C786.00,726.35 784.65,727.82 783.00,729.00 C781.35,730.17 779.73,732.24 779.39,733.59 C779.05,734.95 777.93,736.50 776.90,737.06 C775.86,737.61 774.28,739.48 773.38,741.22 C771.77,744.34 758.34,758.20 750.50,764.83 C748.30,766.69 740.42,773.99 733.00,781.05 C725.58,788.11 717.54,795.37 715.15,797.19 C703.05,806.39 696.12,811.25 692.50,813.05 C683.14,817.72 673.41,824.21 659.64,834.98 C657.48,836.67 654.57,838.00 653.03,838.00 C651.47,838.00 648.63,839.31 646.50,841.00 C644.42,842.65 642.00,844.00 641.11,844.00 C640.23,844.01 637.92,844.97 636.00,846.14 C634.08,847.32 629.72,849.07 626.33,850.05 C622.94,851.02 617.77,853.04 614.83,854.53 C609.21,857.40 609.08,857.44 593.79,861.40 C588.45,862.78 582.68,864.63 580.98,865.51 C579.28,866.39 574.42,868.02 570.19,869.13 C562.94,871.04 558.51,871.83 543.00,874.02 C531.02,875.71 523.55,876.85 517.19,877.96 C513.71,878.57 507.19,879.13 502.69,879.22 C484.47,879.57 447.89,878.08 438.50,876.62 C425.86,874.65 421.56,874.62 420.02,876.47 C418.97,877.75 418.35,877.76 415.48,876.56 C412.82,875.45 411.81,875.41 410.47,876.40 C408.21,878.05 408.95,881.14 412.01,882.80 L 414.50 884.15 L 411.50 883.67 C409.85,883.40 406.98,883.82 405.13,884.59 ZM 596.26 532.18 C639.84,575.47 675.95,610.92 676.50,610.95 C677.04,610.98 694.83,593.67 716.02,572.48 L 754.54 533.97 L 675.74 455.23 L 596.93 376.50 L 602.21 371.57 C605.12,368.86 621.58,352.68 638.80,335.62 L 670.09 304.60 L 612.80 247.30 C581.29,215.79 555.19,190.00 554.79,190.00 C553.97,190.00 481.69,260.98 481.13,262.33 C480.92,262.83 506.01,288.50 536.88,319.39 C567.75,350.27 593.00,375.98 593.00,376.53 C593.00,377.07 575.91,394.60 555.01,415.49 L 517.02 453.47 ZM 400.00 479.34 C400.00,554.81 400.38,614.02 400.87,613.83 C401.34,613.65 419.12,596.36 440.37,575.42 L 479.00 537.34 L 479.00 402.17 C479.00,327.83 478.66,267.00 478.25,267.00 C477.83,267.00 460.06,284.44 438.75,305.75 L 400.00 344.51 ZM 307.00 437.49 L 307.00 707.19 L 311.75 703.16 C314.36,700.94 332.02,683.57 351.00,664.56 L 385.50 629.99 L 385.24 540.74 C385.09,491.66 384.98,430.80 384.99,405.50 L 385.00 359.51 ZM 418.28 619.00 L 333.50 702.90 L 459.00 702.94 L 584.50 702.99 L 668.59 619.00 ZM 227.30 804.10 C225.87,805.53 218.30,806.30 217.56,805.09 C217.17,804.47 216.50,804.19 216.06,804.46 C215.15,805.03 211.69,801.49 211.42,799.70 C211.06,797.32 206.89,791.20 205.21,790.59 C202.83,789.72 198.34,787.03 199.25,787.01 C201.15,786.98 190.83,776.55 188.50,776.17 C186.47,775.83 184.59,774.47 184.39,773.20 C183.68,768.69 182.36,765.81 180.42,764.54 C177.62,762.71 176.62,762.57 177.60,764.15 C178.05,764.89 177.87,765.04 177.09,764.55 C176.42,764.14 176.07,763.60 176.31,763.36 C176.55,763.12 175.60,761.61 174.19,760.00 C171.70,757.17 170.26,753.42 172.09,754.55 C173.46,755.40 173.19,754.22 171.39,751.47 C170.51,750.12 169.41,749.25 168.96,749.52 C168.51,749.80 167.85,749.57 167.50,749.00 C167.15,748.43 166.33,748.27 165.68,748.64 C165.03,749.02 164.79,749.00 165.15,748.60 C165.50,748.20 164.71,746.71 163.40,745.29 C162.08,743.87 161.00,742.14 161.00,741.44 C161.00,740.74 160.66,740.02 160.25,739.83 C159.84,739.65 158.65,737.83 157.62,735.80 C156.58,733.76 154.98,731.28 154.05,730.28 C151.30,727.33 146.49,718.61 146.82,717.17 C147.27,715.21 144.09,710.82 142.80,711.62 C142.13,712.04 141.97,711.85 142.40,711.15 C142.80,710.52 142.75,710.00 142.29,710.00 C141.11,710.00 123.21,674.28 122.61,670.74 C122.50,670.06 121.85,668.49 121.17,667.25 C120.49,666.01 120.28,664.99 120.71,664.98 C121.15,664.98 121.03,664.64 120.45,664.23 C118.51,662.88 110.01,638.91 104.57,619.50 C100.16,603.73 97.48,591.70 94.53,574.56 C90.10,548.70 89.50,540.20 89.52,503.50 C89.55,465.15 90.65,453.03 97.05,420.50 C113.78,335.49 153.26,260.11 213.50,198.15 C281.50,128.20 365.30,86.31 464.00,72.92 C477.97,71.03 485.32,70.67 512.00,70.59 C542.39,70.50 570.36,72.16 571.57,74.11 C571.84,74.55 572.73,74.66 573.55,74.34 C574.37,74.03 576.27,74.26 577.77,74.86 C579.27,75.45 582.75,76.13 585.50,76.36 C594.27,77.08 603.63,79.25 601.45,80.05 C599.72,80.69 599.81,80.85 602.29,81.50 C603.82,81.91 606.41,81.97 608.04,81.64 C609.67,81.32 612.24,81.56 613.75,82.19 C615.26,82.81 616.91,83.23 617.41,83.11 C617.91,82.99 618.63,83.40 619.01,84.01 C619.39,84.62 621.11,85.17 622.85,85.21 C624.58,85.26 626.00,85.67 626.00,86.12 C626.00,86.57 626.72,86.66 627.60,86.32 C628.48,85.99 629.51,86.22 629.90,86.83 C630.28,87.45 632.15,88.16 634.05,88.41 C637.78,88.90 643.30,90.83 641.25,90.94 C640.50,90.97 640.84,91.84 642.12,93.12 C643.85,94.85 645.06,95.14 648.75,94.72 C651.84,94.38 652.83,94.52 651.88,95.19 C650.92,95.87 651.41,95.98 653.50,95.55 C655.63,95.12 656.07,95.22 655.03,95.91 C653.85,96.70 654.14,97.12 656.53,98.08 C658.17,98.74 660.96,99.31 662.74,99.34 C664.70,99.38 665.49,99.71 664.74,100.18 C663.76,100.80 663.76,100.97 664.75,100.98 C665.44,100.99 666.00,101.62 666.00,102.38 C666.00,103.14 666.67,104.31 667.48,104.98 C668.53,105.85 668.68,106.72 668.01,107.97 C667.50,108.94 667.26,109.93 667.50,110.16 C667.73,110.40 666.37,111.42 664.48,112.44 C661.16,114.23 660.80,114.23 654.27,112.53 C650.55,111.56 646.38,110.64 645.00,110.50 C643.62,110.35 636.71,108.38 629.62,106.12 C622.54,103.85 616.13,102.00 615.37,102.00 C614.62,102.00 614.00,101.50 614.00,100.89 C614.00,100.28 613.30,100.05 612.45,100.38 C611.59,100.71 611.14,100.58 611.44,100.10 C612.33,98.66 606.76,96.93 601.98,97.17 C599.52,97.30 594.12,96.66 590.00,95.76 C557.44,88.68 514.49,86.50 477.50,90.07 C397.94,97.73 324.79,127.47 262.00,177.67 C247.10,189.58 217.50,218.49 205.86,232.50 C141.85,309.55 106.98,405.48 107.01,504.45 C107.03,575.70 125.64,645.02 162.05,709.45 C164.32,713.45 165.33,716.44 165.14,718.58 C164.92,721.13 165.45,722.19 167.80,723.85 C169.41,725.00 171.01,725.73 171.36,725.47 C171.71,725.21 171.80,725.27 171.56,725.60 C171.32,725.93 172.28,727.20 173.69,728.41 C175.10,729.62 176.33,731.71 176.42,733.06 C176.51,734.40 177.03,735.42 177.59,735.32 C178.14,735.22 178.59,736.77 178.58,738.76 C178.57,742.00 178.91,742.48 181.71,743.21 C183.95,743.78 185.67,745.35 187.68,748.64 C189.23,751.17 191.40,754.26 192.50,755.49 C193.60,756.72 195.85,759.23 197.50,761.08 C199.15,762.92 199.60,763.78 198.50,762.99 C196.97,761.89 197.08,762.25 198.99,764.53 C202.66,768.93 203.40,769.68 202.59,768.25 C201.64,766.56 202.48,766.66 203.93,768.41 C204.82,769.49 204.82,770.00 203.89,770.57 C203.08,771.07 202.95,770.89 203.50,770.00 C204.03,769.14 203.92,768.93 203.16,769.40 C202.31,769.92 202.41,770.90 203.53,773.06 C205.11,776.12 206.42,776.74 207.53,774.95 C207.97,774.23 208.62,774.27 209.58,775.06 C210.35,775.70 210.75,776.59 210.48,777.03 C210.21,777.47 211.21,779.29 212.71,781.06 C214.20,782.84 215.53,784.97 215.65,785.80 C215.95,787.84 218.19,789.09 219.54,787.97 C220.26,787.37 222.13,788.57 225.01,791.51 C229.00,795.57 230.88,799.00 229.12,799.00 C228.74,799.00 228.35,799.97 228.26,801.15 C228.17,802.33 227.74,803.66 227.30,804.10 ZM 680.60 120.95 C676.74,122.35 675.85,122.28 673.18,120.41 C671.27,119.08 670.65,119.04 669.21,120.16 C667.67,121.37 667.64,121.33 668.87,119.75 C669.78,118.59 669.86,118.00 669.11,118.00 C666.91,118.00 670.43,113.87 674.50,111.69 C680.53,108.47 684.14,106.96 683.55,107.93 C683.25,108.40 683.72,109.06 684.59,109.40 C686.95,110.30 687.70,110.10 686.00,109.00 C685.17,108.47 684.95,108.03 685.50,108.03 C686.05,108.03 687.17,108.47 688.00,109.00 C689.16,109.75 689.19,109.97 688.14,109.98 C687.36,109.99 687.03,110.62 687.36,111.49 C688.21,113.71 683.90,119.74 680.60,120.95 ZM 220.00 802.50 C220.72,803.36 221.80,803.90 222.40,803.70 C223.84,803.22 224.94,795.08 223.67,794.30 C223.13,793.96 223.01,794.20 223.40,794.85 C223.83,795.53 223.48,796.00 222.54,796.00 C220.15,796.00 218.38,800.54 220.00,802.50 ZM 637.76 120.88 L 641.09 122.59 L 637.00 122.61 C634.17,122.63 631.90,121.88 629.70,120.21 L 626.50 117.78 L 630.46 118.47 C632.64,118.86 635.93,119.94 637.76,120.88 ZM 204.45 785.91 C205.26,787.22 207.67,787.34 208.43,786.11 C209.34,784.64 206.09,782.51 204.84,783.76 C204.26,784.34 204.08,785.31 204.45,785.91 ZM 693.00 126.11 C693.00,126.60 692.10,127.00 691.00,127.00 C689.05,127.00 688.39,125.94 689.60,124.74 C690.40,123.93 693.00,124.98 693.00,126.11 ZM 233.64 805.21 C234.69,806.26 234.46,806.50 232.37,806.50 C229.29,806.50 228.37,805.45 230.68,804.57 C231.60,804.22 232.93,804.51 233.64,805.21 ZM 707.00 134.00 C707.00,134.55 706.35,135.00 705.56,135.00 C704.77,135.00 703.84,134.55 703.50,134.00 C703.16,133.45 703.81,133.00 704.94,133.00 C706.07,133.00 707.00,133.45 707.00,134.00 ZM 225.92 794.25 C227.26,795.76 228.50,797.00 228.67,797.00 C229.46,797.00 228.82,796.19 226.25,793.92 L 223.50 791.50 ZM 220.87 789.25 C221.63,790.21 222.41,791.00 222.62,791.00 C223.45,791.00 222.92,790.18 221.25,788.87 C219.66,787.63 219.63,787.66 220.87,789.25 Z" fill="rgb(2,70,137)"/>
    <path d="M 227.30 804.10 C227.74,803.66 228.17,802.33 228.26,801.15 C228.35,799.97 228.74,799.00 229.12,799.00 C230.88,799.00 229.00,795.57 225.01,791.51 C222.13,788.57 220.26,787.37 219.54,787.97 C218.19,789.09 215.95,787.84 215.65,785.80 C215.53,784.97 214.20,782.84 212.71,781.06 C211.21,779.29 210.21,777.47 210.48,777.03 C210.75,776.59 210.35,775.70 209.58,775.06 C208.62,774.27 207.97,774.23 207.53,774.95 C206.42,776.74 205.11,776.12 203.53,773.06 C202.41,770.90 202.31,769.92 203.16,769.40 C203.92,768.93 204.03,769.14 203.50,770.00 C202.95,770.89 203.08,771.07 203.89,770.57 C204.66,770.09 204.80,769.66 204.29,768.90 C239.36,809.72 282.34,843.42 331.49,868.62 C379.87,893.43 425.17,906.47 483.50,912.38 C485.70,912.60 501.45,912.65 518.50,912.50 C550.37,912.21 565.28,910.75 589.92,905.53 C692.49,883.78 782.22,823.54 840.93,737.00 C890.48,663.95 914.85,581.43 912.69,494.00 C911.85,460.15 908.11,432.57 899.92,399.89 C868.19,273.28 782.04,170.29 668.53,120.68 C668.71,120.55 668.94,120.38 669.21,120.16 C670.65,119.04 671.27,119.08 673.18,120.41 C675.85,122.28 676.74,122.35 680.60,120.95 C683.90,119.74 688.21,113.71 687.36,111.49 C687.03,110.62 687.36,109.99 688.14,109.98 C688.57,109.98 688.82,109.94 688.88,109.84 C731.17,130.03 766.86,155.72 802.05,190.94 C822.18,211.07 834.18,225.28 849.39,246.96 C908.64,331.39 937.68,435.86 929.98,536.82 C923.90,616.45 893.87,696.59 846.40,759.83 C774.90,855.08 671.38,914.98 555.00,928.44 C542.36,929.90 504.98,931.07 493.00,930.38 C464.20,928.73 425.95,922.19 399.00,914.33 C349.37,899.84 298.60,874.26 257.50,843.02 C231.09,822.95 207.43,800.46 186.41,775.44 C187.04,775.78 187.76,776.04 188.50,776.17 C190.83,776.55 201.15,786.98 199.25,787.01 C198.34,787.03 202.83,789.72 205.21,790.59 C206.89,791.20 211.06,797.32 211.42,799.70 C211.69,801.49 215.15,805.03 216.06,804.46 C216.50,804.19 217.17,804.47 217.56,805.09 C218.30,806.30 225.87,805.53 227.30,804.10 ZM 405.13 884.59 C406.98,883.82 409.85,883.40 411.50,883.67 L 414.50 884.15 L 412.01 882.80 C408.95,881.14 408.21,878.05 410.47,876.40 C411.81,875.41 412.82,875.45 415.48,876.56 C418.35,877.76 418.97,877.75 420.02,876.47 C421.56,874.62 425.86,874.65 438.50,876.62 C447.89,878.08 484.47,879.57 502.69,879.22 C507.19,879.13 513.71,878.57 517.19,877.96 C523.55,876.85 531.02,875.71 543.00,874.02 C558.51,871.83 562.94,871.04 570.19,869.13 C574.42,868.02 579.28,866.39 580.98,865.51 C582.68,864.63 588.45,862.78 593.79,861.40 C609.08,857.44 609.21,857.40 614.83,854.53 C617.77,853.04 622.94,851.02 626.33,850.05 C629.72,849.07 634.08,847.32 636.00,846.14 C637.92,844.97 640.23,844.01 641.11,844.00 C642.00,844.00 644.42,842.65 646.50,841.00 C648.63,839.31 651.47,838.00 653.03,838.00 C654.57,838.00 657.48,836.67 659.64,834.98 C673.41,824.21 683.14,817.72 692.50,813.05 C696.12,811.25 703.05,806.39 715.15,797.19 C717.54,795.37 725.58,788.11 733.00,781.05 C740.42,773.99 748.30,766.69 750.50,764.83 C758.34,758.20 771.77,744.34 773.38,741.22 C774.28,739.48 775.86,737.61 776.90,737.06 C777.93,736.50 779.05,734.95 779.39,733.59 C779.73,732.24 781.35,730.17 783.00,729.00 C784.65,727.82 786.00,726.35 786.00,725.72 C786.00,725.10 787.56,722.99 789.46,721.04 C793.82,716.58 806.51,698.66 808.61,694.00 C809.48,692.08 810.98,689.60 811.94,688.50 C814.50,685.56 824.00,669.63 824.00,668.27 C824.00,667.63 825.29,665.17 826.87,662.80 C829.93,658.21 838.40,641.49 839.56,637.75 C839.95,636.51 841.04,634.38 841.99,633.00 C842.93,631.62 844.00,629.27 844.37,627.78 C844.73,626.28 846.13,623.42 847.49,621.43 C848.84,619.43 850.21,616.16 850.54,614.15 C851.27,609.63 853.01,604.34 856.40,596.34 C857.83,592.95 860.28,585.29 861.83,579.32 C863.38,573.35 865.42,567.29 866.36,565.85 C867.30,564.41 868.92,560.37 869.96,556.87 C871.00,553.37 872.31,549.15 872.87,547.50 C873.43,545.85 874.37,539.85 874.95,534.16 C875.72,526.53 876.52,523.16 877.97,521.31 C879.06,519.93 880.23,517.16 880.59,515.15 C880.94,513.14 881.85,510.50 882.61,509.29 C883.38,508.07 884.00,505.59 884.01,503.79 C884.02,501.98 884.69,498.29 885.51,495.59 C886.33,492.89 887.00,489.40 887.00,487.84 C887.00,486.28 887.45,485.00 888.00,485.00 C888.55,485.00 889.00,484.19 889.00,483.19 C889.00,480.37 891.60,477.50 894.17,477.48 C896.40,477.47 896.49,477.17 896.33,470.56 C896.24,466.76 896.52,464.23 896.95,464.92 C898.66,467.68 898.65,453.95 896.94,442.50 C896.20,437.50 895.45,432.84 894.68,428.41 C896.31,437.36 897.77,446.89 899.18,457.50 C902.11,479.63 902.35,522.96 899.67,546.80 C891.01,624.03 861.60,695.30 813.35,756.00 C807.45,763.42 794.27,777.86 784.06,788.08 C751.91,820.27 724.26,840.39 684.50,860.50 C634.46,885.82 586.63,898.74 530.93,901.96 C521.34,902.52 512.60,902.91 511.50,902.83 C510.40,902.75 502.75,902.35 494.50,901.95 C463.48,900.43 432.50,894.85 402.45,885.66 C403.10,885.42 404.07,885.03 405.13,884.59 ZM 685.22 108.12 C685.11,108.27 685.39,108.61 686.00,109.00 C687.70,110.10 686.95,110.30 684.59,109.40 C683.72,109.06 683.25,108.40 683.55,107.93 C684.14,106.96 680.53,108.47 674.50,111.69 C670.43,113.87 666.91,118.00 669.11,118.00 C669.86,118.00 669.78,118.59 668.87,119.75 C668.60,120.09 668.40,120.36 668.25,120.56 C657.13,115.71 645.76,111.38 634.14,107.58 C628.49,105.73 621.98,103.82 615.31,102.00 C615.33,102.00 615.35,102.00 615.37,102.00 C616.13,102.00 622.54,103.85 629.62,106.12 C636.71,108.38 643.62,110.35 645.00,110.50 C646.38,110.64 650.55,111.56 654.27,112.53 C660.80,114.23 661.16,114.23 664.48,112.44 C666.37,111.42 667.73,110.40 667.50,110.16 C667.26,109.93 667.50,108.94 668.01,107.97 C668.68,106.72 668.53,105.85 667.48,104.98 C666.67,104.31 666.00,103.14 666.00,102.38 C666.00,101.62 665.44,100.99 664.75,100.98 C663.76,100.97 663.76,100.80 664.74,100.18 C665.49,99.71 664.70,99.38 662.74,99.34 C660.96,99.31 658.17,98.74 656.53,98.08 C654.14,97.12 653.85,96.70 655.03,95.91 C655.26,95.76 655.42,95.64 655.50,95.54 C657.12,96.16 658.79,96.81 660.50,97.49 C669.00,100.86 677.23,104.40 685.22,108.12 ZM 189.81 751.90 C189.07,750.84 188.32,749.69 187.68,748.64 C185.67,745.35 183.95,743.78 181.71,743.21 C178.91,742.48 178.57,742.00 178.58,738.76 C178.59,736.77 178.14,735.22 177.59,735.32 C177.03,735.42 176.51,734.40 176.42,733.06 C176.33,731.71 175.10,729.62 173.69,728.41 C172.28,727.20 171.32,725.93 171.56,725.60 C171.80,725.27 171.71,725.21 171.36,725.47 C171.01,725.73 169.41,725.00 167.80,723.85 C165.45,722.19 164.92,721.13 165.14,718.58 C165.33,716.44 164.32,713.45 162.05,709.45 C161.93,709.24 161.82,709.03 161.70,708.82 L 161.72 708.86 C166.37,716.41 171.13,723.72 178.90,735.24 C183.63,742.25 188.49,749.67 189.70,751.72 C189.73,751.78 189.77,751.84 189.81,751.90 ZM 220.00 802.50 C218.38,800.54 220.15,796.00 222.54,796.00 C223.48,796.00 223.83,795.53 223.40,794.85 C223.01,794.20 223.13,793.96 223.67,794.30 C224.94,795.08 223.84,803.22 222.40,803.70 C221.80,803.90 220.72,803.36 220.00,802.50 ZM 614.60 101.81 C601.18,98.18 587.17,94.97 578.00,93.55 C573.65,92.88 568.36,92.06 564.60,91.47 C573.53,92.60 582.07,94.04 590.00,95.76 C594.12,96.66 599.52,97.30 601.98,97.17 C606.76,96.93 612.33,98.66 611.44,100.10 C611.14,100.58 611.59,100.71 612.45,100.38 C613.30,100.05 614.00,100.28 614.00,100.89 C614.00,101.27 614.24,101.61 614.60,101.81 ZM 654.91 95.31 C654.57,95.35 654.10,95.43 653.50,95.55 C651.41,95.98 650.92,95.87 651.88,95.19 C652.83,94.52 651.84,94.38 648.75,94.72 C645.06,95.14 643.85,94.85 642.12,93.12 C640.84,91.84 640.50,90.97 641.25,90.94 C641.90,90.90 641.79,90.69 641.21,90.39 C644.89,91.59 649.60,93.28 654.91,95.31 ZM 176.25 762.89 C173.58,759.47 170.96,756.01 168.39,752.50 C167.43,751.19 166.49,749.89 165.63,748.67 C165.65,748.66 165.66,748.65 165.68,748.64 C166.33,748.27 167.15,748.43 167.50,749.00 C167.85,749.57 168.51,749.80 168.96,749.52 C169.41,749.25 170.51,750.12 171.39,751.47 C173.19,754.22 173.46,755.40 172.09,754.55 C170.26,753.42 171.70,757.17 174.19,760.00 C175.21,761.16 175.99,762.27 176.25,762.89 ZM 184.35 772.98 C182.13,770.29 179.93,767.57 177.77,764.83 C177.91,764.79 177.85,764.57 177.60,764.15 C176.62,762.57 177.62,762.71 180.42,764.54 C182.33,765.79 183.64,768.60 184.35,772.98 ZM 398.37 884.39 C393.35,882.80 388.35,881.10 383.38,879.30 C387.86,880.75 390.66,881.24 393.21,881.12 C397.61,880.92 398.18,881.23 397.93,883.71 C397.91,883.90 398.08,884.15 398.37,884.39 ZM 600.56 79.01 C604.85,80.11 608.90,81.00 609.59,81.00 C610.28,81.00 612.07,81.50 613.60,82.13 C612.08,81.55 609.62,81.33 608.04,81.64 C606.41,81.97 603.82,81.91 602.29,81.50 C599.81,80.85 599.72,80.69 601.45,80.05 C602.11,79.81 601.70,79.43 600.56,79.01 ZM 204.45 785.91 C204.08,785.31 204.26,784.34 204.84,783.76 C206.09,782.51 209.34,784.64 208.43,786.11 C207.67,787.34 205.26,787.22 204.45,785.91 ZM 148.99 722.63 C147.09,719.47 144.87,715.63 142.66,711.70 C142.71,711.68 142.75,711.65 142.80,711.62 C144.09,710.82 147.27,715.21 146.82,717.17 C146.67,717.84 147.63,720.11 148.99,722.63 ZM 120.46 607.94 C111.53,574.15 107.02,539.53 107.01,504.45 C107.00,495.52 107.28,486.62 107.84,477.75 C105.14,521.58 109.41,565.61 120.46,607.94 ZM 693.00 126.11 C693.00,124.98 690.40,123.93 689.60,124.74 C688.39,125.94 689.05,127.00 691.00,127.00 C692.10,127.00 693.00,126.60 693.00,126.11 ZM 233.64 805.21 C232.93,804.51 231.60,804.22 230.68,804.57 C228.37,805.45 229.29,806.50 232.37,806.50 C234.46,806.50 234.69,806.26 233.64,805.21 ZM 203.18 767.60 C202.22,766.69 201.81,766.88 202.59,768.25 C203.40,769.68 202.66,768.93 198.99,764.53 C197.08,762.25 196.97,761.89 198.50,762.99 C199.43,763.65 199.25,763.15 198.19,761.87 C199.69,763.57 201.40,765.53 203.18,767.60 ZM 495.90 88.78 C463.17,90.60 431.76,95.87 401.71,104.59 C426.20,97.43 451.51,92.57 477.50,90.07 C483.50,89.49 489.66,89.06 495.90,88.78 ZM 303.59 840.18 C268.27,817.82 236.39,790.06 210.02,757.95 C235.87,789.43 268.05,817.54 303.59,840.18 ZM 707.00 134.00 C707.00,133.45 706.07,133.00 704.94,133.00 C703.81,133.00 703.16,133.45 703.50,134.00 C703.84,134.55 704.77,135.00 705.56,135.00 C706.35,135.00 707.00,134.55 707.00,134.00 ZM 142.38 711.20 C139.18,705.49 136.05,699.67 134.03,695.52 C132.57,692.53 131.21,689.74 129.99,687.17 C135.29,697.96 141.61,710.00 142.29,710.00 C142.75,710.00 142.80,710.52 142.40,711.15 ZM 225.92 794.25 L 223.50 791.50 L 226.25 793.92 C228.82,796.19 229.46,797.00 228.67,797.00 C228.50,797.00 227.26,795.76 225.92,794.25 ZM 116.94 413.45 C122.51,388.25 130.38,363.61 140.45,339.81 C132.52,358.66 125.90,378.21 120.57,398.50 C119.26,403.46 118.05,408.45 116.94,413.45 ZM 220.87 789.25 C219.63,787.66 219.66,787.63 221.25,788.87 C222.92,790.18 223.45,791.00 222.62,791.00 C222.41,791.00 221.63,790.21 220.87,789.25 ZM 161.00 741.49 C160.70,740.83 160.32,740.22 160.07,740.00 C159.76,739.72 158.65,737.83 157.62,735.80 C156.58,733.76 154.90,731.19 153.87,730.09 C153.79,730.00 153.69,729.89 153.59,729.76 C153.75,729.95 153.90,730.12 154.05,730.28 C154.98,731.28 156.58,733.76 157.62,735.80 C158.65,737.83 159.84,739.65 160.25,739.83 C160.66,740.02 161.00,740.74 161.00,741.44 C161.00,741.45 161.00,741.47 161.00,741.49 ZM 165.19 748.06 C164.32,746.82 163.53,745.68 162.90,744.73 C163.06,744.92 163.22,745.11 163.40,745.29 C164.36,746.33 165.03,747.40 165.19,748.06 ZM 159.52 704.91 C157.08,700.47 154.72,696.00 152.44,691.52 C152.67,691.97 152.91,692.41 153.14,692.86 C155.48,697.36 157.84,701.81 159.52,704.91 ZM 577.77 74.86 C576.28,74.26 574.39,74.03 573.57,74.34 C574.39,74.03 576.28,74.26 577.77,74.85 C579.27,75.45 583.20,76.16 586.50,76.44 C586.86,76.47 587.26,76.51 587.69,76.56 C586.96,76.49 586.23,76.42 585.50,76.36 C582.75,76.13 579.27,75.45 577.77,74.86 ZM 881.55 376.45 C881.06,374.94 880.55,373.40 880.03,371.82 C843.17,261.02 763.53,173.19 660.35,129.56 C763.53,173.19 843.13,260.97 880.03,371.82 C880.55,373.38 881.06,374.92 881.55,376.45 Z" fill="rgb(13,32,82)"/>
    <path d="M 637.76 120.88 C637.70,120.85 637.63,120.82 637.57,120.78 C641.08,122.04 644.62,123.34 647.95,124.60 C645.59,123.84 645.00,124.00 645.12,124.75 C645.69,128.38 642.61,129.10 638.38,126.33 C636.25,124.94 635.29,124.85 632.59,125.83 C630.81,126.47 625.93,127.00 621.74,127.00 C617.53,127.00 613.83,127.47 613.47,128.04 C613.12,128.61 610.51,129.05 607.67,129.00 C585.94,128.65 571.93,129.19 566.50,130.58 C555.71,133.36 551.66,133.96 539.73,134.53 C533.26,134.85 526.11,135.75 523.85,136.55 C521.60,137.35 517.83,138.00 515.48,138.00 C510.04,138.00 496.74,140.73 493.21,142.58 C491.72,143.35 489.57,143.99 488.44,143.99 C487.30,144.00 484.51,144.90 482.24,146.00 C479.96,147.10 477.25,148.00 476.22,148.00 C473.78,148.00 460.54,153.60 445.50,161.00 C438.90,164.24 432.15,167.20 430.50,167.58 C428.85,167.96 426.83,168.78 426.00,169.41 C424.22,170.77 412.85,176.40 408.25,178.21 C406.46,178.91 405.00,179.78 405.00,180.15 C405.00,180.97 398.24,185.00 396.85,185.00 C396.29,185.00 393.91,186.97 391.58,189.37 C389.22,191.80 385.59,194.29 383.42,194.98 C377.48,196.87 370.56,201.61 366.51,206.56 C364.50,209.00 362.11,211.00 361.18,211.01 C360.26,211.01 358.33,211.80 356.90,212.76 C355.47,213.71 352.10,215.95 349.40,217.73 C346.71,219.51 342.74,223.43 340.60,226.45 C338.45,229.47 335.00,233.11 332.93,234.55 C330.86,235.99 327.97,238.88 326.51,240.99 C324.78,243.48 322.14,245.55 318.93,246.94 C316.22,248.10 314.00,249.46 314.00,249.96 C314.00,250.45 313.44,251.45 312.75,252.18 C310.12,254.96 306.00,260.91 306.00,261.93 C306.00,262.52 305.63,263.00 305.17,263.00 C304.71,263.00 302.88,265.25 301.10,267.99 C299.32,270.74 295.27,274.99 292.09,277.43 C288.91,279.88 285.55,283.03 284.63,284.44 C283.71,285.85 282.25,287.00 281.40,287.00 C279.52,287.00 274.02,292.31 273.96,294.17 C273.94,294.90 271.47,297.98 268.47,301.00 C265.47,304.02 263.01,307.24 263.01,308.14 C263.00,309.05 261.76,311.12 260.25,312.76 C254.47,318.99 249.00,325.90 249.00,326.96 C249.00,328.70 245.93,332.95 240.91,338.19 C238.38,340.83 235.53,344.71 234.59,346.80 C233.58,349.04 231.52,351.34 229.59,352.38 C226.09,354.26 220.00,361.47 220.00,363.72 C220.00,365.18 214.92,376.89 212.50,381.00 C211.11,383.36 208.54,388.71 205.53,395.50 C201.98,403.50 200.74,406.19 196.50,415.08 C193.79,420.77 192.19,425.34 192.57,426.32 C192.96,427.33 192.62,428.21 191.72,428.55 C190.83,428.89 189.98,431.10 189.59,434.06 C188.92,439.08 186.53,445.07 183.02,450.54 C181.94,452.21 180.78,456.03 180.43,459.04 C180.08,462.04 179.39,464.93 178.89,465.45 C178.40,465.97 178.00,468.01 178.00,469.97 C178.00,471.93 177.16,476.68 176.13,480.52 C174.99,484.73 173.79,494.63 173.09,505.50 C172.45,515.40 171.47,527.33 170.92,532.00 C169.12,547.26 168.96,568.69 170.56,582.00 C172.87,601.34 174.02,608.69 175.47,613.28 C176.20,615.60 177.34,621.55 178.00,626.50 C178.66,631.45 179.60,636.80 180.10,638.40 C180.59,639.99 181.00,642.37 181.00,643.69 C181.00,645.00 181.83,647.75 182.84,649.79 C184.53,653.19 187.00,661.02 193.63,684.00 C194.98,688.67 196.51,693.28 197.04,694.24 C197.57,695.19 198.00,696.85 198.00,697.93 C198.00,699.00 198.44,700.15 198.97,700.48 C200.17,701.22 202.84,709.73 204.01,716.50 C205.71,726.39 207.95,733.46 209.87,734.97 C211.11,735.94 211.98,738.13 212.27,741.00 C212.52,743.47 213.48,747.97 214.42,751.00 C218.08,762.89 217.67,763.45 210.25,756.75 L 205.54 752.50 L 210.02 757.95 C211.83,760.15 213.66,762.33 215.52,764.49 C208.39,756.73 203.05,750.61 203.37,750.29 C203.55,750.11 202.17,748.34 200.30,746.36 C198.44,744.38 197.09,742.57 197.32,742.34 C197.55,742.12 196.52,740.62 195.03,739.03 C191.75,735.53 179.31,716.84 172.12,704.63 C145.40,659.27 126.86,603.36 120.33,548.50 C117.65,525.98 117.88,479.52 120.78,456.50 C123.07,438.40 127.46,414.65 130.96,401.50 C158.79,296.80 222.92,209.95 312.56,155.52 C334.60,142.14 368.59,126.39 391.00,119.16 C449.59,100.28 507.33,94.72 563.50,102.56 C577.11,104.46 602.68,109.53 606.59,111.10 C608.19,111.74 610.51,112.40 611.75,112.57 C614.15,112.88 622.46,115.51 631.89,118.78 C631.38,118.66 630.90,118.55 630.46,118.47 L 626.50 117.78 L 629.70 120.21 C631.90,121.88 634.17,122.63 637.00,122.61 L 641.09 122.59 ZM 772.91 202.97 C821.14,248.09 858.01,305.65 880.03,371.82 C858.09,305.90 821.04,248.14 772.91,202.97 ZM 402.37 885.69 L 402.45 885.66 C430.61,894.28 459.60,899.72 488.67,901.62 C459.59,899.72 430.59,894.31 402.37,885.69 ZM 398.37 884.39 C398.41,884.42 398.45,884.45 398.49,884.49 C392.71,882.66 386.97,880.69 381.26,878.59 C382.01,878.85 382.71,879.09 383.38,879.30 C388.35,881.10 393.35,882.80 398.37,884.39 ZM 298.74 837.06 C300.35,838.11 301.96,839.15 303.59,840.18 C304.67,840.87 305.76,841.56 306.86,842.24 C304.13,840.54 301.42,838.82 298.74,837.06 Z" fill="rgb(17,134,198)"/>
    <path d="M 0.00 512.00 L 0.00 0.00 L 512.00 0.00 L 1024.00 0.00 L 1024.00 512.00 L 1024.00 1024.00 L 512.00 1024.00 L 0.00 1024.00 L 0.00 512.00 ZM 555.00 928.44 C671.38,914.98 774.90,855.08 846.40,759.83 C893.87,696.59 923.90,616.45 929.98,536.82 C937.68,435.86 908.64,331.39 849.39,246.96 C834.18,225.28 822.18,211.07 802.05,190.94 C759.26,148.12 715.73,119.38 660.50,97.49 C647.77,92.44 637.36,88.88 634.05,88.43 C632.15,88.17 630.28,87.45 629.90,86.83 C629.51,86.22 628.48,85.99 627.60,86.32 C626.72,86.66 626.00,86.57 626.00,86.12 C626.00,85.67 624.58,85.26 622.85,85.21 C621.11,85.17 619.39,84.62 619.01,84.01 C618.63,83.40 617.91,82.99 617.41,83.11 C616.91,83.23 615.23,82.80 613.68,82.16 C612.14,81.52 610.30,81.00 609.59,81.00 C608.89,81.00 604.76,80.09 600.41,78.98 C596.06,77.86 589.80,76.72 586.50,76.44 C583.20,76.16 579.27,75.45 577.77,74.85 C576.27,74.26 574.37,74.03 573.55,74.34 C572.73,74.66 571.84,74.55 571.57,74.11 C570.36,72.16 542.39,70.50 512.00,70.59 C485.32,70.67 477.97,71.03 464.00,72.92 C365.30,86.31 281.50,128.20 213.50,198.15 C153.26,260.11 113.78,335.49 97.05,420.50 C90.65,453.03 89.55,465.15 89.52,503.50 C89.50,540.20 90.10,548.70 94.53,574.56 C97.48,591.70 100.16,603.73 104.57,619.50 C110.01,638.91 118.51,662.88 120.45,664.23 C121.03,664.64 121.15,664.98 120.71,664.98 C120.28,664.99 120.49,666.01 121.17,667.25 C121.85,668.49 122.50,670.06 122.61,670.74 C122.83,672.04 127.32,681.78 134.03,695.52 C139.18,706.08 151.51,727.56 153.87,730.09 C154.90,731.19 156.58,733.76 157.62,735.80 C158.65,737.83 159.76,739.72 160.07,740.00 C160.39,740.28 160.90,741.17 161.22,742.00 C161.53,742.83 164.76,747.55 168.39,752.50 C193.64,786.91 223.26,817.00 257.50,843.02 C298.60,874.26 349.37,899.84 399.00,914.33 C425.95,922.19 464.20,928.73 493.00,930.38 C504.98,931.07 542.36,929.90 555.00,928.44 ZM 483.50 912.38 C425.17,906.47 379.87,893.43 331.49,868.62 C282.18,843.34 239.08,809.50 203.95,768.50 C198.77,762.45 193.94,757.04 193.21,756.48 C192.49,755.91 190.91,753.77 189.70,751.72 C188.49,749.67 183.63,742.25 178.90,735.24 C171.13,723.72 166.37,716.41 161.72,708.86 C160.83,707.41 156.97,700.21 153.14,692.86 C106.34,603.02 94.63,497.18 120.57,398.50 C136.84,336.58 165.13,281.52 205.86,232.50 C217.50,218.49 247.10,189.58 262.00,177.67 C331.86,121.81 412.67,91.95 503.50,88.42 C518.58,87.84 550.33,89.24 561.50,90.99 C564.80,91.50 572.22,92.66 578.00,93.55 C591.90,95.70 616.94,101.96 634.14,107.58 C764.50,150.18 865.06,260.78 899.92,399.89 C908.11,432.57 911.85,460.15 912.69,494.00 C914.85,581.43 890.48,663.95 840.93,737.00 C782.22,823.54 692.49,883.78 589.92,905.53 C565.28,910.75 550.37,912.21 518.50,912.50 C501.45,912.65 485.70,912.60 483.50,912.38 ZM 530.93 901.96 C586.63,898.74 634.46,885.82 684.50,860.50 C724.26,840.39 751.91,820.27 784.06,788.08 C794.27,777.86 807.45,763.42 813.35,756.00 C861.60,695.30 891.01,624.03 899.67,546.80 C902.35,522.96 902.11,479.63 899.18,457.50 C894.64,423.26 889.51,400.28 880.03,371.82 C842.92,260.35 763.69,173.30 659.00,128.98 C645.25,123.17 616.59,113.21 611.75,112.57 C610.51,112.40 608.19,111.74 606.59,111.10 C602.68,109.53 577.11,104.46 563.50,102.56 C507.33,94.72 449.59,100.28 391.00,119.16 C368.59,126.39 334.60,142.14 312.56,155.52 C222.92,209.95 158.79,296.80 130.96,401.50 C127.46,414.65 123.07,438.40 120.78,456.50 C117.88,479.52 117.65,525.98 120.33,548.50 C126.86,603.36 145.40,659.27 172.12,704.63 C179.31,716.84 191.75,735.53 195.03,739.03 C196.52,740.62 197.55,742.12 197.32,742.34 C197.09,742.57 198.44,744.38 200.30,746.36 C202.17,748.34 203.55,750.11 203.37,750.29 C202.60,751.07 234.66,785.46 245.56,795.55 C314.18,859.05 404.21,897.53 494.50,901.95 C502.75,902.35 510.40,902.75 511.50,902.83 C512.60,902.91 521.34,902.52 530.93,901.96 ZM 307.00 572.34 L 307.00 437.49 L 346.00 398.50 L 385.00 359.51 L 384.99 405.50 C384.98,430.80 385.09,491.66 385.24,540.74 L 385.50 629.99 L 351.00 664.56 C332.02,683.57 314.36,700.94 311.75,703.16 L 307.00 707.19 L 307.00 572.34 ZM 375.89 660.95 L 418.28 619.00 L 543.44 619.00 L 668.59 619.00 L 626.55 660.99 L 584.50 702.99 L 459.00 702.94 L 333.50 702.90 L 375.89 660.95 ZM 400.00 479.34 L 400.00 344.51 L 438.75 305.75 C460.06,284.44 477.83,267.00 478.25,267.00 C478.66,267.00 479.00,327.83 479.00,402.17 L 479.00 537.34 L 440.37 575.42 C419.12,596.36 401.34,613.65 400.87,613.83 C400.38,614.02 400.00,554.81 400.00,479.34 ZM 596.26 532.18 L 517.02 453.47 L 555.01 415.49 C575.91,394.60 593.00,377.07 593.00,376.53 C593.00,375.98 567.75,350.27 536.88,319.39 C506.01,288.50 480.92,262.83 481.13,262.33 C481.69,260.98 553.97,190.00 554.79,190.00 C555.19,190.00 581.29,215.79 612.80,247.30 L 670.09 304.60 L 638.80 335.62 C621.58,352.68 605.12,368.86 602.21,371.57 L 596.93 376.50 L 675.74 455.23 L 754.54 533.97 L 716.02 572.48 C694.83,593.67 677.04,610.98 676.50,610.95 C675.95,610.92 639.84,575.47 596.26,532.18 Z" fill=""/>
  </g>
</svg>